<svg width="32" height="32" viewBox="0 0 32 32" fill="none" xmlns="http://www.w3.org/2000/svg">
<rect width="32" height="32" rx="8" fill="#167DB7"/>
<path fill-rule="evenodd" clip-rule="evenodd" d="M12.8973 21.4946C13.0842 21.4946 13.2244 21.3771 13.2477 21.2127L14.93 7.2819V7.23492C14.93 7.09397 14.8599 7 14.7197 7H14.673H11.9159C11.729 7.02349 11.7057 7.09397 11.6823 7.25841L10.0234 21.1892L10 21.2362C10 21.4006 10.1402 21.4946 10.3037 21.4946H12.8973ZM15.3272 25.4178C17.5936 25.4178 19.4862 24.713 19.8601 21.6825L21.6592 7.2819C21.6592 7.14095 21.5891 7.04698 21.4255 7.04698H21.3788L18.7385 7C18.575 7.02349 18.4348 7.11746 18.4114 7.2819L16.659 21.753C16.4721 23.186 15.7712 23.28 14.7665 23.327C14.577 23.3376 14.4018 23.3434 14.2407 23.3487C14.0443 23.3552 13.8691 23.3611 13.715 23.374C13.4113 23.374 13.2945 23.4444 13.2477 23.7733L13.1075 24.901V25.0184C13.1075 25.2736 13.2898 25.2997 13.4518 25.3229L13.458 25.3238C13.4929 25.3285 13.5262 25.3332 13.5591 25.3378C13.8571 25.3797 14.128 25.4178 15.3272 25.4178Z" fill="white"/>
</svg>
